<svg xmlns="http://www.w3.org/2000/svg"  viewBox="0 0 96 96" width="96px" height="96px" baseProfile="basic"><path fill="#44d62c" d="M71.24,77.117c-2.455,0-4.954-0.354-6.631-1.993c-0.769-0.752-1.667-2.083-1.609-4.171	v-17.82c0-1.657,1.343-3,3-3s3,1.343,3,3v17.771c1.005,0.334,3.62,0.179,4.793,0.111c1.335-0.079,2.508-0.149,3.506-0.022	C78.251,70.904,79,70.1,79,69.125V41.719c0-1.657,1.343-3,3-3s3,1.343,3,3v27.406C85,73.467,81.468,77,77.126,77	c-0.001,0-0.001,0-0.001,0c-0.189,0-0.379-0.018-0.564-0.054c-0.365-0.064-1.551,0.007-2.414,0.058	C73.224,77.059,72.235,77.117,71.24,77.117z" opacity=".3"/><path fill="#44d62c" d="M71.256,76.116c-2.259,0-4.519-0.311-5.947-1.707c-0.632-0.618-1.371-1.724-1.308-3.482	L64,53.132c0-1.104,0.896-2,2-2s2,0.896,2,2V71c-0.015,0.432,0.073,0.517,0.105,0.549c0.773,0.756,4.007,0.566,5.747,0.464	c1.33-0.079,2.493-0.146,3.413-0.016C78.786,71.923,80,70.663,80,69.125V41.719c0-1.104,0.896-2,2-2s2,0.896,2,2v27.406	C84,72.916,80.916,76,77.125,76l0,0c-0.126,0-0.252-0.012-0.376-0.036c-0.461-0.088-1.63-0.02-2.662,0.041	C73.188,76.059,72.222,76.116,71.256,76.116z" opacity=".3"/><path fill="#e0e722" d="M66,51.119c-1.657,0-3-1.343-3-3V28.555c0.053-1.828,1.032-3.581,2.912-5.299	c2.359-2.156,6.354-4.367,9.181-4.257c0.024,0,0.05,0,0.073,0c2.792,0,5.178,1.006,6.91,2.917c3.276,3.613,3.192,9.267,2.942,11.884	c0.214,3.148-3.338,5.862-9.042,9.817c-1.016,0.704-2.405,1.667-2.723,1.979c-1.081,1.256-2.948,1.369-4.205,0.288	c-0.017-0.014-0.033-0.028-0.049-0.043v2.279C69,49.776,67.657,51.119,66,51.119z M68.999,28.788L69,41.364	c0.646-0.649,1.684-1.379,3.558-2.678c1.687-1.169,5.511-3.821,6.45-5.085c0.003-0.036,0.006-0.071,0.01-0.107	c0.366-3.253-0.178-6.216-1.386-7.547C77.254,25.529,76.547,25,75.084,25c-0.07,0.003-0.148,0-0.226-0.005	C73.434,25.021,69.585,27.519,68.999,28.788z" opacity=".3"/><path fill="#e0e722" d="M66,50.119c-1.104,0-2-0.896-2-2V28.555c0.044-1.518,0.914-3.033,2.587-4.561	c2.251-2.057,6.043-4.105,8.492-3.995c2.522-0.047,4.701,0.874,6.257,2.588c3.053,3.366,2.921,8.783,2.678,11.212	c0.225,2.66-3.15,5.212-8.607,8.996c-1.144,0.793-2.566,1.779-2.866,2.1c-0.745,0.795-2.01,0.875-2.82,0.148	c-0.81-0.727-0.913-1.942-0.203-2.767c0.54-0.628,1.609-1.381,3.61-2.769c1.881-1.304,6.213-4.308,6.874-5.588	c-0.005-0.104-0.001-0.209,0.011-0.314c0.315-2.806,0.051-6.468-1.639-8.33c-0.797-0.879-1.886-1.299-3.303-1.275	c-0.051-0.001-0.101-0.001-0.15-0.004c-1.818-0.1-6.766,3.22-6.921,4.625L68,48.119C68,49.224,67.104,50.119,66,50.119z M80.046,34.259c0,0,0,0.001,0,0.001C80.046,34.26,80.046,34.259,80.046,34.259z" opacity=".3"/><path fill="#0fd2ff" d="M24.76,77.117c-0.995,0-1.983-0.058-2.906-0.112c-0.864-0.052-2.051-0.121-2.416-0.057	C19.267,76.977,19.048,77,18.875,77c0,0,0,0-0.001,0C14.532,77,11,73.467,11,69.125V41.719c0-1.657,1.343-3,3-3s3,1.343,3,3v27.406	c0,0.975,0.749,1.779,1.701,1.868c0.997-0.126,2.171-0.057,3.506,0.022c1.173,0.068,3.787,0.223,4.793-0.111V53.132	c0-1.657,1.343-3,3-3s3,1.343,3,3v17.82c0.058,2.087-0.841,3.419-1.609,4.171C29.714,76.763,27.215,77.117,24.76,77.117z" opacity=".3"/><path fill="#0fd2ff" d="M24.744,76.116c-0.966,0-1.932-0.057-2.831-0.11c-1.032-0.06-2.201-0.128-2.662-0.041	C19.127,75.988,19.001,76,18.875,76l0,0C15.084,76,12,72.916,12,69.125V41.719c0-1.104,0.896-2,2-2s2,0.896,2,2v27.406	c0,1.538,1.214,2.798,2.734,2.872c0.918-0.131,2.081-0.063,3.413,0.016c1.737,0.102,4.973,0.293,5.747-0.464	c0.032-0.032,0.12-0.117,0.106-0.476L28,53.132c0-1.104,0.896-2,2-2s2,0.896,2,2V71c0.063,1.685-0.677,2.791-1.309,3.409	C29.263,75.805,27.002,76.116,24.744,76.116z" opacity=".3"/><path fill="#d22730" d="M30,51.119c-1.657,0-3-1.343-3-3v-2.331c-0.021,0.018-0.04,0.037-0.061,0.054	c-1.251,1.089-3.143,0.959-4.233-0.29c-0.258-0.244-1.588-1.171-2.656-1.917c-5.633-3.929-9.183-6.573-9.06-9.638	c-0.256-2.638-0.368-8.448,2.937-12.088c1.729-1.906,4.118-2.91,6.913-2.91c0.022,0,0.045,0,0.067,0	c2.827-0.12,6.819,2.1,9.178,4.253c1.88,1.717,2.86,3.47,2.914,5.21L33,48.119C33,49.776,31.657,51.119,30,51.119z M16.98,33.602	c0.96,1.248,4.806,3.93,6.502,5.113c1.861,1.298,2.89,2.025,3.518,2.651v-12.58c-0.589-1.271-4.435-3.766-5.887-3.79	C21.04,25,20.989,25.001,20.918,25c-0.026,0-0.054,0-0.08,0c-1.443,0-2.1,0.536-2.469,0.943	C17.146,27.291,16.614,30.223,16.98,33.602z M27.034,28.867L27.034,28.867L27.034,28.867z" opacity=".3"/><path fill="#d22730" d="M30,50.119c-1.104,0-2-0.896-2-2V28.555c-0.15-1.337-5.17-4.678-6.922-4.559	C21.03,24,20.981,24,20.932,24c-1.427-0.042-2.51,0.396-3.303,1.27c-1.438,1.584-2.05,4.757-1.637,8.487	c0.007,0.066,0.011,0.132,0.012,0.199c0.708,1.256,5.029,4.27,6.906,5.579c2.039,1.422,3.043,2.133,3.565,2.732	c0.726,0.833,0.639,2.096-0.193,2.822c-0.833,0.726-2.098,0.639-2.822-0.194c-0.286-0.3-1.701-1.287-2.838-2.08	c-5.403-3.769-8.752-6.3-8.628-8.829c-0.248-2.453-0.402-8.017,2.673-11.405c1.551-1.708,3.719-2.593,6.254-2.582	c2.484-0.104,6.24,1.938,8.489,3.992c1.673,1.528,2.544,3.042,2.589,4.502L32,48.119C32,49.224,31.104,50.119,30,50.119z" opacity=".3"/><path fill="#d22730" d="M48.007,42.542c-2.491,0-4.985-1.666-9.211-5.002c-1.477-1.167-3.314-2.618-5.555-4.287	c-1.328-0.99-1.603-2.87-0.612-4.198c0.99-1.33,2.869-1.602,4.198-0.613c2.307,1.719,4.182,3.2,5.688,4.39	c2.521,1.99,4.697,3.709,5.488,3.712c0.001,0,0.001,0,0.002,0c0.78,0,2.925-1.695,5.408-3.658c1.522-1.203,3.417-2.701,5.763-4.445	c1.33-0.988,3.207-0.714,4.197,0.617c0.989,1.33,0.713,3.208-0.617,4.197c-2.274,1.691-4.131,3.159-5.622,4.337	C52.961,40.89,50.486,42.542,48.007,42.542z" opacity=".3"/><path fill="#d22730" d="M48.006,41.563c-2.262,0-4.528-1.601-8.59-4.808c-1.482-1.17-3.326-2.627-5.577-4.304	c-0.886-0.66-1.068-1.913-0.408-2.798c0.66-0.886,1.91-1.07,2.799-0.409c2.295,1.71,4.164,3.187,5.666,4.372	c3.098,2.446,4.967,3.923,6.104,3.927c0.002,0,0.004,0,0.005,0c1.129,0,2.975-1.458,6.029-3.874	c1.518-1.199,3.405-2.692,5.739-4.427c0.887-0.661,2.139-0.474,2.798,0.412c0.659,0.886,0.476,2.139-0.411,2.798	c-2.286,1.7-4.148,3.172-5.646,4.355C52.506,39.976,50.258,41.563,48.006,41.563z" opacity=".3"/><path fill="#d22730" d="M48.007,62.803c-2.573,0-5.151-1.723-9.519-5.175c-1.578-1.248-3.543-2.801-5.953-4.595	c-1.329-0.989-1.604-2.869-0.615-4.198c0.989-1.331,2.868-1.604,4.197-0.616c2.48,1.847,4.483,3.43,6.093,4.702	c2.752,2.176,4.926,3.895,5.793,3.898c0.001,0,0.002,0,0.002,0c0.855,0,2.999-1.696,5.711-3.842	c1.625-1.286,3.648-2.887,6.169-4.759c1.33-0.988,3.209-0.711,4.197,0.619c0.988,1.33,0.711,3.209-0.619,4.197	c-2.447,1.818-4.431,3.387-6.023,4.648C53.127,61.094,50.569,62.803,48.007,62.803z" opacity=".3"/><path fill="#d22730" d="M48.006,61.829c-2.343,0-4.69-1.66-8.897-4.985c-1.583-1.252-3.554-2.811-5.977-4.613	c-0.886-0.66-1.069-1.913-0.41-2.799c0.659-0.885,1.912-1.068,2.799-0.41c2.469,1.838,4.465,3.416,6.069,4.684	c3.24,2.563,5.197,4.109,6.409,4.114c0.002,0,0.004,0,0.005,0c1.205,0,3.136-1.528,6.332-4.058c1.62-1.282,3.637-2.877,6.146-4.741	c0.887-0.659,2.139-0.474,2.798,0.413s0.474,2.139-0.413,2.798c-2.46,1.827-4.449,3.401-6.048,4.667	C52.667,60.184,50.339,61.829,48.006,61.829z" opacity=".3"/><path fill="#44d62c" d="M71.257,75.116c-2.054,0-4.067-0.267-5.249-1.422c-0.709-0.694-1.048-1.612-1.007-2.73L65,53.132	c0-0.552,0.447-1,1-1s1,0.448,1,1V71c-0.027,0.754,0.219,1.081,0.406,1.264c1.091,1.066,4.22,0.883,6.505,0.748	c1.323-0.077,2.473-0.145,3.296-0.012C79.306,72.955,81,71.234,81,69.125V41.719c0-0.552,0.447-1,1-1s1,0.448,1,1v27.406	C83,72.364,80.364,75,77.125,75c-0.063,0-0.126-0.006-0.188-0.018c-0.584-0.111-1.712-0.045-2.908,0.025	C73.147,75.06,72.197,75.116,71.257,75.116z"/><path fill="#e0e722" d="M66,49.119c-0.553,0-1-0.448-1-1V28.555c0.035-1.208,0.796-2.484,2.261-3.822	c2.078-1.898,5.707-3.86,7.841-3.731c2.278-0.042,4.104,0.726,5.493,2.257c2.831,3.122,2.648,8.314,2.413,10.546	c0.243,2.15-3.248,4.755-8.171,8.168c-1.343,0.931-2.73,1.893-3.047,2.26c-0.36,0.419-0.994,0.464-1.41,0.105	c-0.419-0.36-0.466-0.992-0.105-1.41c0.46-0.535,1.545-1.297,3.423-2.599c2.009-1.393,7.346-5.093,7.323-6.301	c-0.024-0.107-0.027-0.202-0.016-0.312c0.44-3.916-0.267-7.322-1.892-9.114c-1-1.104-2.349-1.611-4.058-1.603	c-1.329-0.086-4.331,1.277-6.445,3.209c-0.991,0.905-1.594,1.793-1.61,2.375v19.535C67,48.671,66.553,49.119,66,49.119z"/><path fill="#0fd2ff" d="M24.743,75.116c-0.94,0-1.89-0.056-2.771-0.108c-1.196-0.071-2.324-0.136-2.908-0.025	C19.001,74.995,18.938,75,18.875,75l0,0C15.636,75,13,72.364,13,69.125V41.719c0-0.552,0.447-1,1-1s1,0.448,1,1v27.406	c0,2.109,1.694,3.83,3.793,3.875c0.823-0.133,1.974-0.065,3.296,0.012c2.284,0.135,5.414,0.318,6.505-0.748	c0.188-0.183,0.434-0.51,0.407-1.227L29,53.132c0-0.552,0.447-1,1-1s1,0.448,1,1V71c0.04,1.082-0.299,2-1.008,2.694	C28.811,74.849,26.797,75.116,24.743,75.116z"/><path fill="#d22730" d="M30,49.119c-0.553,0-1-0.448-1-1V28.555c-0.018-0.553-0.621-1.442-1.612-2.349	c-2.112-1.928-5.093-3.291-6.369-3.208c-1.825-0.038-3.133,0.501-4.13,1.6c-1.628,1.793-2.335,5.258-1.891,9.27	c0.011,0.097,0.007,0.195-0.011,0.292c0.109,1.145,5.184,4.685,7.351,6.196c1.864,1.3,2.94,2.061,3.384,2.569	c0.363,0.417,0.319,1.048-0.097,1.411c-0.416,0.361-1.047,0.32-1.411-0.097c-0.304-0.348-1.685-1.312-3.021-2.243	c-5.038-3.515-8.363-5.998-8.196-8.025c-0.238-2.267-0.433-7.584,2.41-10.716c1.386-1.525,3.243-2.276,5.565-2.253	c2.099-0.125,5.688,1.835,7.764,3.73c1.465,1.338,2.227,2.615,2.264,3.794v19.595C31,48.671,30.553,49.119,30,49.119z"/><path fill="#d22730" d="M48.005,40.563c-2.042,0-4.089-1.529-7.969-4.593c-1.487-1.174-3.338-2.636-5.6-4.321	c-0.442-0.33-0.534-0.957-0.204-1.399c0.331-0.442,0.957-0.534,1.399-0.204c2.284,1.702,4.146,3.173,5.644,4.355	c3.487,2.755,5.238,4.137,6.721,4.143c0.003,0,0.006,0,0.009,0c1.476,0,3.206-1.368,6.648-4.089	c1.513-1.195,3.394-2.682,5.716-4.409c0.444-0.331,1.07-0.238,1.399,0.206s0.237,1.069-0.206,1.399	c-2.298,1.709-4.167,3.187-5.669,4.374C52.067,39.047,50.038,40.563,48.005,40.563z"/><path fill="#d22730" d="M48.006,60.834c-2.121,0-4.247-1.589-8.277-4.775c-1.588-1.256-3.565-2.819-5.999-4.631	c-0.443-0.33-0.535-0.956-0.205-1.399c0.33-0.442,0.956-0.535,1.398-0.205c2.458,1.829,4.447,3.402,6.047,4.667	c3.641,2.878,5.468,4.323,7.026,4.329c0.003,0,0.006,0,0.009,0c1.552,0,3.358-1.43,6.952-4.274c1.614-1.278,3.624-2.868,6.12-4.722	c0.444-0.33,1.069-0.237,1.399,0.207c0.329,0.443,0.237,1.07-0.206,1.399c-2.473,1.836-4.469,3.416-6.072,4.685	C52.224,59.259,50.117,60.834,48.006,60.834z"/></svg>